<?xml version="1.0" standalone="no"?>
<!DOCTYPE svg PUBLIC "-//W3C//DTD SVG 20010904//EN"
 "http://www.w3.org/TR/2001/REC-SVG-20010904/DTD/svg10.dtd">
<svg version="1.0" xmlns="http://www.w3.org/2000/svg"
 width="260.000000pt" height="260.000000pt" viewBox="0 0 260.000000 260.000000"
 preserveAspectRatio="xMidYMid meet">
<metadata>
Created by potrace 1.11, written by Peter Selinger 2001-2013
</metadata>
<g transform="translate(0.000000,260.000000) scale(0.100000,-0.100000)"
fill="#000000" stroke="none">
<path d="M259 2586 c-102 -27 -184 -99 -231 -202 l-23 -49 0 -1040 0 -1040 26
-55 c38 -79 90 -134 161 -169 l61 -31 1052 0 1052 0 61 30 c70 36 124 91 158
164 l24 51 0 1051 0 1051 -30 61 c-36 72 -92 124 -169 161 l-56 26 -1020 2
c-787 1 -1030 -1 -1066 -11z m1248 -59 c49 -26 70 -65 99 -183 28 -114 33
-124 75 -141 23 -10 37 -4 134 53 170 100 198 94 370 -80 160 -161 166 -191
65 -357 -61 -101 -62 -104 -50 -140 l13 -38 116 -28 c200 -48 215 -71 216
-308 0 -146 -2 -164 -23 -206 -28 -57 -56 -73 -197 -108 -108 -27 -110 -28
-123 -63 -14 -36 -14 -37 48 -140 74 -122 82 -157 49 -224 -30 -62 -200 -233
-263 -263 -65 -32 -97 -25 -222 50 -104 61 -105 61 -141 48 -36 -14 -36 -15
-68 -136 -45 -176 -68 -196 -240 -208 -127 -9 -256 7 -296 36 -39 28 -51 54
-83 185 l-28 111 -37 13 c-36 12 -39 11 -141 -52 -93 -56 -111 -63 -156 -63
-63 1 -114 36 -228 155 -144 151 -149 180 -52 345 57 97 63 111 53 134 -17 42
-27 47 -141 75 -191 47 -201 62 -201 306 0 252 6 260 204 312 113 29 119 32
134 64 l16 34 -64 107 c-100 167 -93 205 70 368 163 163 201 170 367 70 106
-63 108 -64 142 -50 32 14 34 18 60 122 54 214 70 224 336 219 122 -2 162 -6
187 -19z"/>
<path d="M1210 2401 l-55 -6 -31 -120 c-17 -66 -34 -132 -37 -146 -5 -18 -16
-29 -34 -34 -15 -3 -60 -21 -99 -40 l-72 -33 -124 74 c-67 41 -128 74 -135 74
-15 0 -193 -178 -193 -193 0 -7 33 -68 74 -135 l74 -124 -33 -72 c-19 -39 -37
-84 -40 -99 -5 -18 -16 -29 -34 -34 -14 -3 -80 -20 -146 -37 l-120 -31 -6 -60
c-4 -33 -4 -97 -1 -142 l5 -81 147 -37 147 -37 16 -51 c10 -29 27 -74 40 -102
l23 -50 -73 -121 c-40 -67 -73 -127 -73 -133 0 -13 111 -132 161 -171 l37 -30
127 76 127 76 66 -30 c37 -17 79 -34 94 -37 15 -4 31 -12 36 -18 5 -7 24 -74
43 -149 l33 -137 54 -7 c70 -9 223 1 231 14 4 6 21 72 40 146 28 115 36 136
54 142 12 3 59 21 103 40 l82 35 126 -76 126 -76 57 50 c32 28 78 74 101 101
l44 51 -77 126 -76 126 34 81 c19 44 38 91 41 103 6 18 27 26 142 54 74 19
140 37 147 41 13 8 22 177 13 241 l-7 43 -137 33 c-75 19 -142 38 -149 43 -6
5 -14 21 -18 36 -3 15 -20 57 -37 94 l-30 66 76 127 76 127 -30 37 c-39 50
-158 161 -171 161 -6 0 -66 -33 -133 -73 l-121 -73 -50 23 c-28 13 -73 30
-102 40 l-51 16 -37 149 -37 148 -37 0 c-20 0 -58 2 -86 4 -27 2 -75 1 -105
-3z m138 -583 c86 -128 302 -478 302 -492 0 -25 -310 -555 -332 -567 -14 -8
-25 -7 -40 3 -12 8 -92 137 -179 288 -136 236 -156 276 -147 294 24 46 313
501 323 508 23 17 45 6 73 -34z"/>
</g>
</svg>
